# MagicaVoxel @ Ephtracy

# group
g L_b04

# material
mtllib L_b04.mtl
usemtl palette

# normals
vn -1 0 0
vn 1 0 0
vn 0 0 1
vn 0 0 -1
vn 0 -1 0
vn 0 1 0

# texcoords
vt 0.00195313 0.5
vt 0.431641 0.5
vt 0.611328 0.5
vt 0.970703 0.5
vt 0.982422 0.5

# verts
v -21.5 2 9
v -21.5 2 -3
v -21.5 10 11
v -21.5 10 9
v -21.5 10 -3
v -21.5 38 11
v -21.5 38 -3
v -19.5 2 10
v -19.5 2 9
v -19.5 10 10
v -19.5 10 9
v -17.5 9 12
v -17.5 9 11
v -17.5 10 12
v -17.5 10 11
v -17.5 11 12
v -17.5 11 11
v -17.5 12 12
v -17.5 12 11
v -17.5 13 12
v -17.5 13 11
v -17.5 16 12
v -17.5 16 11
v -17.5 17 12
v -17.5 17 11
v -17.5 18 12
v -17.5 18 11
v -17.5 19 12
v -17.5 19 11
v -17.5 20 12
v -17.5 20 11
v -17.5 23 12
v -17.5 23 11
v -17.5 24 12
v -17.5 24 11
v -17.5 25 12
v -17.5 25 11
v -17.5 26 12
v -17.5 26 11
v -17.5 27 12
v -17.5 27 11
v -17.5 30 12
v -17.5 30 11
v -17.5 31 12
v -17.5 31 11
v -17.5 32 12
v -17.5 32 11
v -17.5 33 12
v -17.5 33 11
v -17.5 34 12
v -17.5 34 11
v -11.5 2 10
v -11.5 2 9
v -11.5 8 10
v -11.5 8 9
v -4.5 2 10
v -4.5 2 9
v -4.5 7 10
v -4.5 7 9
v 3.5 2 10
v 3.5 2 9
v 3.5 4 9
v 3.5 8 10
v 3.5 8 9
v 10.5 2 10
v 10.5 2 -3
v 10.5 8 10
v 10.5 8 -3
v 18.5 2 10
v 18.5 2 9
v 18.5 4 9
v 18.5 8 10
v 18.5 8 9
v -18.5 2 10
v -18.5 2 9
v -18.5 8 10
v -18.5 8 9
v -9.5 2 10
v -9.5 2 9
v -9.5 7 10
v -9.5 7 9
v -2.5 2 10
v -2.5 2 9
v -2.5 4 9
v -2.5 8 10
v -2.5 8 9
v 4.5 2 10
v 4.5 2 -3
v 4.5 8 10
v 4.5 8 -3
v 11.5 2 10
v 11.5 2 9
v 11.5 4 9
v 11.5 8 10
v 11.5 8 9
v 16.5 9 12
v 16.5 9 11
v 16.5 10 12
v 16.5 10 11
v 16.5 11 12
v 16.5 11 11
v 16.5 12 12
v 16.5 12 11
v 16.5 13 12
v 16.5 13 11
v 16.5 16 12
v 16.5 16 11
v 16.5 17 12
v 16.5 17 11
v 16.5 18 12
v 16.5 18 11
v 16.5 19 12
v 16.5 19 11
v 16.5 20 12
v 16.5 20 11
v 16.5 23 12
v 16.5 23 11
v 16.5 24 12
v 16.5 24 11
v 16.5 25 12
v 16.5 25 11
v 16.5 26 12
v 16.5 26 11
v 16.5 27 12
v 16.5 27 11
v 16.5 30 12
v 16.5 30 11
v 16.5 31 12
v 16.5 31 11
v 16.5 32 12
v 16.5 32 11
v 16.5 33 12
v 16.5 33 11
v 16.5 34 12
v 16.5 34 11
v 20.5 2 10
v 20.5 2 -3
v 20.5 10 11
v 20.5 10 10
v 20.5 10 -3
v 20.5 38 11
v 20.5 38 -3
v -17.5 9 12
v -17.5 10 12
v -17.5 11 12
v -17.5 12 12
v -17.5 13 12
v -17.5 16 12
v -17.5 17 12
v -17.5 18 12
v -17.5 19 12
v -17.5 20 12
v -17.5 23 12
v -17.5 24 12
v -17.5 25 12
v -17.5 26 12
v -17.5 27 12
v -17.5 30 12
v -17.5 31 12
v -17.5 32 12
v -17.5 33 12
v -17.5 34 12
v 16.5 9 12
v 16.5 10 12
v 16.5 11 12
v 16.5 12 12
v 16.5 13 12
v 16.5 16 12
v 16.5 17 12
v 16.5 18 12
v 16.5 19 12
v 16.5 20 12
v 16.5 23 12
v 16.5 24 12
v 16.5 25 12
v 16.5 26 12
v 16.5 27 12
v 16.5 30 12
v 16.5 31 12
v 16.5 32 12
v 16.5 33 12
v 16.5 34 12
v -21.5 10 11
v -21.5 38 11
v -19.5 13 11
v -19.5 16 11
v -19.5 20 11
v -19.5 23 11
v -19.5 27 11
v -19.5 30 11
v -19.5 34 11
v -19.5 37 11
v -17.5 10 11
v -17.5 11 11
v -17.5 12 11
v -17.5 13 11
v -17.5 16 11
v -17.5 17 11
v -17.5 18 11
v -17.5 19 11
v -17.5 20 11
v -17.5 23 11
v -17.5 24 11
v -17.5 25 11
v -17.5 26 11
v -17.5 27 11
v -17.5 30 11
v -17.5 31 11
v -17.5 32 11
v -17.5 33 11
v -17.5 34 11
v -16.5 13 11
v -16.5 16 11
v -16.5 20 11
v -16.5 23 11
v -16.5 27 11
v -16.5 30 11
v -16.5 34 11
v -16.5 37 11
v -14.5 13 11
v -14.5 16 11
v -14.5 20 11
v -14.5 23 11
v -14.5 27 11
v -14.5 30 11
v -14.5 34 11
v -14.5 37 11
v -11.5 13 11
v -11.5 16 11
v -11.5 20 11
v -11.5 23 11
v -11.5 27 11
v -11.5 30 11
v -11.5 34 11
v -11.5 37 11
v -9.5 13 11
v -9.5 16 11
v -9.5 20 11
v -9.5 23 11
v -9.5 27 11
v -9.5 30 11
v -9.5 34 11
v -9.5 37 11
v -6.5 13 11
v -6.5 16 11
v -6.5 20 11
v -6.5 23 11
v -6.5 27 11
v -6.5 30 11
v -6.5 34 11
v -6.5 37 11
v -4.5 13 11
v -4.5 16 11
v -4.5 20 11
v -4.5 23 11
v -4.5 27 11
v -4.5 30 11
v -4.5 34 11
v -4.5 37 11
v -1.5 13 11
v -1.5 16 11
v -1.5 20 11
v -1.5 23 11
v -1.5 27 11
v -1.5 30 11
v -1.5 34 11
v -1.5 37 11
v 0.5 13 11
v 0.5 16 11
v 0.5 20 11
v 0.5 23 11
v 0.5 27 11
v 0.5 30 11
v 0.5 34 11
v 0.5 37 11
v 3.5 13 11
v 3.5 16 11
v 3.5 20 11
v 3.5 23 11
v 3.5 27 11
v 3.5 30 11
v 3.5 34 11
v 3.5 37 11
v 5.5 13 11
v 5.5 16 11
v 5.5 20 11
v 5.5 23 11
v 5.5 27 11
v 5.5 30 11
v 5.5 34 11
v 5.5 37 11
v 8.5 13 11
v 8.5 16 11
v 8.5 20 11
v 8.5 23 11
v 8.5 27 11
v 8.5 30 11
v 8.5 34 11
v 8.5 37 11
v 10.5 13 11
v 10.5 16 11
v 10.5 20 11
v 10.5 23 11
v 10.5 27 11
v 10.5 30 11
v 10.5 34 11
v 10.5 37 11
v 13.5 13 11
v 13.5 16 11
v 13.5 20 11
v 13.5 23 11
v 13.5 27 11
v 13.5 30 11
v 13.5 34 11
v 13.5 37 11
v 15.5 13 11
v 15.5 16 11
v 15.5 20 11
v 15.5 23 11
v 15.5 27 11
v 15.5 30 11
v 15.5 34 11
v 15.5 37 11
v 16.5 10 11
v 16.5 11 11
v 16.5 12 11
v 16.5 13 11
v 16.5 16 11
v 16.5 17 11
v 16.5 18 11
v 16.5 19 11
v 16.5 20 11
v 16.5 23 11
v 16.5 24 11
v 16.5 25 11
v 16.5 26 11
v 16.5 27 11
v 16.5 30 11
v 16.5 31 11
v 16.5 32 11
v 16.5 33 11
v 16.5 34 11
v 18.5 13 11
v 18.5 16 11
v 18.5 20 11
v 18.5 23 11
v 18.5 27 11
v 18.5 30 11
v 18.5 34 11
v 18.5 37 11
v 20.5 10 11
v 20.5 38 11
v -19.5 2 10
v -19.5 10 10
v -18.5 2 10
v -18.5 8 10
v -11.5 2 10
v -11.5 8 10
v -9.5 2 10
v -9.5 7 10
v -4.5 2 10
v -4.5 7 10
v -2.5 2 10
v -2.5 8 10
v 3.5 2 10
v 3.5 8 10
v 4.5 2 10
v 4.5 8 10
v 10.5 2 10
v 10.5 8 10
v 11.5 2 10
v 11.5 8 10
v 18.5 2 10
v 18.5 8 10
v 20.5 2 10
v 20.5 10 10
v -21.5 2 9
v -21.5 10 9
v -19.5 2 9
v -19.5 10 9
v -18.5 2 9
v -18.5 8 9
v -17.5 2 9
v -17.5 7 9
v -15.5 2 9
v -15.5 7 9
v -14.5 2 9
v -14.5 7 9
v -12.5 2 9
v -12.5 7 9
v -11.5 2 9
v -11.5 8 9
v -9.5 2 9
v -9.5 7 9
v -8.5 3 9
v -8.5 6 9
v -7.5 3 9
v -7.5 6 9
v -6.5 3 9
v -6.5 6 9
v -5.5 3 9
v -5.5 6 9
v -4.5 2 9
v -4.5 7 9
v -2.5 2 9
v -2.5 4 9
v -2.5 8 9
v -1.5 5 9
v -1.5 7 9
v -0.5 5 9
v -0.5 7 9
v 0.5 5 9
v 0.5 7 9
v 2.5 5 9
v 2.5 7 9
v 3.5 2 9
v 3.5 4 9
v 3.5 8 9
v 11.5 2 9
v 11.5 4 9
v 11.5 8 9
v 12.5 5 9
v 12.5 7 9
v 14.5 5 9
v 14.5 7 9
v 15.5 5 9
v 15.5 7 9
v 17.5 5 9
v 17.5 7 9
v 18.5 2 9
v 18.5 4 9
v 18.5 8 9
v -17.5 9 11
v -17.5 10 11
v 16.5 9 11
v 16.5 10 11
v -21.5 2 -3
v -21.5 10 -3
v -21.5 38 -3
v 4.5 2 -3
v 4.5 8 -3
v 10.5 2 -3
v 10.5 8 -3
v 20.5 2 -3
v 20.5 10 -3
v 20.5 38 -3
v -19.5 2 10
v -18.5 2 10
v -11.5 2 10
v -9.5 2 10
v -4.5 2 10
v -2.5 2 10
v 3.5 2 10
v 4.5 2 10
v 10.5 2 10
v 11.5 2 10
v 18.5 2 10
v 20.5 2 10
v -21.5 2 9
v -19.5 2 9
v -18.5 2 9
v -17.5 2 9
v -15.5 2 9
v -14.5 2 9
v -12.5 2 9
v -11.5 2 9
v -9.5 2 9
v -4.5 2 9
v -2.5 2 9
v 3.5 2 9
v 11.5 2 9
v 18.5 2 9
v -18.5 2 8
v -17.5 2 8
v -15.5 2 8
v -14.5 2 8
v -12.5 2 8
v -11.5 2 8
v -9.5 2 8
v -4.5 2 8
v -21.5 2 -3
v 4.5 2 -3
v 10.5 2 -3
v 20.5 2 -3
v -9.5 7 10
v -4.5 7 10
v -9.5 7 9
v -4.5 7 9
v -18.5 8 10
v -11.5 8 10
v -2.5 8 10
v 3.5 8 10
v 4.5 8 10
v 10.5 8 10
v 11.5 8 10
v 18.5 8 10
v -18.5 8 9
v -11.5 8 9
v -2.5 8 9
v 3.5 8 9
v 11.5 8 9
v 18.5 8 9
v 4.5 8 -3
v 10.5 8 -3
v -17.5 9 12
v 16.5 9 12
v -17.5 9 11
v 16.5 9 11
v -21.5 10 11
v -17.5 10 11
v 16.5 10 11
v 20.5 10 11
v -19.5 10 10
v 20.5 10 10
v -21.5 10 9
v -19.5 10 9
v -17.5 16 12
v 16.5 16 12
v -17.5 16 11
v -16.5 16 11
v -14.5 16 11
v -11.5 16 11
v -9.5 16 11
v -6.5 16 11
v -4.5 16 11
v -1.5 16 11
v 0.5 16 11
v 3.5 16 11
v 5.5 16 11
v 8.5 16 11
v 10.5 16 11
v 13.5 16 11
v 15.5 16 11
v 16.5 16 11
v -17.5 23 12
v 16.5 23 12
v -17.5 23 11
v -16.5 23 11
v -14.5 23 11
v -11.5 23 11
v -9.5 23 11
v -6.5 23 11
v -4.5 23 11
v -1.5 23 11
v 0.5 23 11
v 3.5 23 11
v 5.5 23 11
v 8.5 23 11
v 10.5 23 11
v 13.5 23 11
v 15.5 23 11
v 16.5 23 11
v -17.5 30 12
v 16.5 30 12
v -17.5 30 11
v -16.5 30 11
v -14.5 30 11
v -11.5 30 11
v -9.5 30 11
v -6.5 30 11
v -4.5 30 11
v -1.5 30 11
v 0.5 30 11
v 3.5 30 11
v 5.5 30 11
v 8.5 30 11
v 10.5 30 11
v 13.5 30 11
v 15.5 30 11
v 16.5 30 11
v -17.5 13 12
v 16.5 13 12
v -17.5 13 11
v -16.5 13 11
v -14.5 13 11
v -11.5 13 11
v -9.5 13 11
v -6.5 13 11
v -4.5 13 11
v -1.5 13 11
v 0.5 13 11
v 3.5 13 11
v 5.5 13 11
v 8.5 13 11
v 10.5 13 11
v 13.5 13 11
v 15.5 13 11
v 16.5 13 11
v -17.5 20 12
v 16.5 20 12
v -17.5 20 11
v -16.5 20 11
v -14.5 20 11
v -11.5 20 11
v -9.5 20 11
v -6.5 20 11
v -4.5 20 11
v -1.5 20 11
v 0.5 20 11
v 3.5 20 11
v 5.5 20 11
v 8.5 20 11
v 10.5 20 11
v 13.5 20 11
v 15.5 20 11
v 16.5 20 11
v -17.5 27 12
v 16.5 27 12
v -17.5 27 11
v -16.5 27 11
v -14.5 27 11
v -11.5 27 11
v -9.5 27 11
v -6.5 27 11
v -4.5 27 11
v -1.5 27 11
v 0.5 27 11
v 3.5 27 11
v 5.5 27 11
v 8.5 27 11
v 10.5 27 11
v 13.5 27 11
v 15.5 27 11
v 16.5 27 11
v -17.5 34 12
v 16.5 34 12
v -17.5 34 11
v -16.5 34 11
v -14.5 34 11
v -11.5 34 11
v -9.5 34 11
v -6.5 34 11
v -4.5 34 11
v -1.5 34 11
v 0.5 34 11
v 3.5 34 11
v 5.5 34 11
v 8.5 34 11
v 10.5 34 11
v 13.5 34 11
v 15.5 34 11
v 16.5 34 11
v -21.5 38 11
v 20.5 38 11
v -21.5 38 -3
v 20.5 38 -3

# faces
f 4/2/1 2/2/1 1/2/1
f 5/2/1 2/2/1 4/2/1
f 6/4/1 4/4/1 3/4/1
f 6/4/1 5/4/1 4/4/1
f 7/4/1 5/4/1 6/4/1
f 10/2/1 9/2/1 8/2/1
f 11/2/1 9/2/1 10/2/1
f 14/4/1 13/4/1 12/4/1
f 15/4/1 13/4/1 14/4/1
f 16/5/1 15/5/1 14/5/1
f 17/5/1 15/5/1 16/5/1
f 18/4/1 17/4/1 16/4/1
f 19/4/1 17/4/1 18/4/1
f 20/5/1 19/5/1 18/5/1
f 21/5/1 19/5/1 20/5/1
f 24/4/1 23/4/1 22/4/1
f 25/4/1 23/4/1 24/4/1
f 26/5/1 25/5/1 24/5/1
f 27/5/1 25/5/1 26/5/1
f 28/4/1 27/4/1 26/4/1
f 29/4/1 27/4/1 28/4/1
f 30/5/1 29/5/1 28/5/1
f 31/5/1 29/5/1 30/5/1
f 34/4/1 33/4/1 32/4/1
f 35/4/1 33/4/1 34/4/1
f 36/5/1 35/5/1 34/5/1
f 37/5/1 35/5/1 36/5/1
f 38/4/1 37/4/1 36/4/1
f 39/4/1 37/4/1 38/4/1
f 40/5/1 39/5/1 38/5/1
f 41/5/1 39/5/1 40/5/1
f 44/4/1 43/4/1 42/4/1
f 45/4/1 43/4/1 44/4/1
f 46/5/1 45/5/1 44/5/1
f 47/5/1 45/5/1 46/5/1
f 48/4/1 47/4/1 46/4/1
f 49/4/1 47/4/1 48/4/1
f 50/5/1 49/5/1 48/5/1
f 51/5/1 49/5/1 50/5/1
f 54/2/1 53/2/1 52/2/1
f 55/2/1 53/2/1 54/2/1
f 58/2/1 57/2/1 56/2/1
f 59/2/1 57/2/1 58/2/1
f 62/2/1 61/2/1 60/2/1
f 63/2/1 62/2/1 60/2/1
f 64/2/1 62/2/1 63/2/1
f 67/2/1 66/2/1 65/2/1
f 68/2/1 66/2/1 67/2/1
f 71/2/1 70/2/1 69/2/1
f 72/2/1 71/2/1 69/2/1
f 73/2/1 71/2/1 72/2/1
f 74/2/2 75/2/2 76/2/2
f 76/2/2 75/2/2 77/2/2
f 78/2/2 79/2/2 80/2/2
f 80/2/2 79/2/2 81/2/2
f 82/2/2 83/2/2 84/2/2
f 82/2/2 84/2/2 85/2/2
f 85/2/2 84/2/2 86/2/2
f 87/2/2 88/2/2 89/2/2
f 89/2/2 88/2/2 90/2/2
f 91/2/2 92/2/2 93/2/2
f 91/2/2 93/2/2 94/2/2
f 94/2/2 93/2/2 95/2/2
f 96/4/2 97/4/2 98/4/2
f 98/4/2 97/4/2 99/4/2
f 98/5/2 99/5/2 100/5/2
f 100/5/2 99/5/2 101/5/2
f 100/4/2 101/4/2 102/4/2
f 102/4/2 101/4/2 103/4/2
f 102/5/2 103/5/2 104/5/2
f 104/5/2 103/5/2 105/5/2
f 106/4/2 107/4/2 108/4/2
f 108/4/2 107/4/2 109/4/2
f 108/5/2 109/5/2 110/5/2
f 110/5/2 109/5/2 111/5/2
f 110/4/2 111/4/2 112/4/2
f 112/4/2 111/4/2 113/4/2
f 112/5/2 113/5/2 114/5/2
f 114/5/2 113/5/2 115/5/2
f 116/4/2 117/4/2 118/4/2
f 118/4/2 117/4/2 119/4/2
f 118/5/2 119/5/2 120/5/2
f 120/5/2 119/5/2 121/5/2
f 120/4/2 121/4/2 122/4/2
f 122/4/2 121/4/2 123/4/2
f 122/5/2 123/5/2 124/5/2
f 124/5/2 123/5/2 125/5/2
f 126/4/2 127/4/2 128/4/2
f 128/4/2 127/4/2 129/4/2
f 128/5/2 129/5/2 130/5/2
f 130/5/2 129/5/2 131/5/2
f 130/4/2 131/4/2 132/4/2
f 132/4/2 131/4/2 133/4/2
f 132/5/2 133/5/2 134/5/2
f 134/5/2 133/5/2 135/5/2
f 136/2/2 137/2/2 139/2/2
f 139/2/2 137/2/2 140/2/2
f 138/4/2 139/4/2 141/4/2
f 139/4/2 140/4/2 141/4/2
f 141/4/2 140/4/2 142/4/2
f 163/4/3 144/4/3 143/4/3
f 164/5/3 145/5/3 144/5/3
f 164/4/3 144/4/3 163/4/3
f 165/4/3 146/4/3 145/4/3
f 165/5/3 145/5/3 164/5/3
f 166/5/3 147/5/3 146/5/3
f 166/4/3 146/4/3 165/4/3
f 167/5/3 147/5/3 166/5/3
f 168/4/3 149/4/3 148/4/3
f 169/5/3 150/5/3 149/5/3
f 169/4/3 149/4/3 168/4/3
f 170/4/3 151/4/3 150/4/3
f 170/5/3 150/5/3 169/5/3
f 171/5/3 152/5/3 151/5/3
f 171/4/3 151/4/3 170/4/3
f 172/5/3 152/5/3 171/5/3
f 173/4/3 154/4/3 153/4/3
f 174/5/3 155/5/3 154/5/3
f 174/4/3 154/4/3 173/4/3
f 175/4/3 156/4/3 155/4/3
f 175/5/3 155/5/3 174/5/3
f 176/5/3 157/5/3 156/5/3
f 176/4/3 156/4/3 175/4/3
f 177/5/3 157/5/3 176/5/3
f 178/4/3 159/4/3 158/4/3
f 179/5/3 160/5/3 159/5/3
f 179/4/3 159/4/3 178/4/3
f 180/4/3 161/4/3 160/4/3
f 180/5/3 160/5/3 179/5/3
f 181/5/3 162/5/3 161/5/3
f 181/4/3 161/4/3 180/4/3
f 182/5/3 162/5/3 181/5/3
f 185/4/3 184/4/3 183/4/3
f 186/4/3 184/4/3 185/4/3
f 187/4/3 184/4/3 186/4/3
f 188/4/3 184/4/3 187/4/3
f 189/4/3 184/4/3 188/4/3
f 190/4/3 184/4/3 189/4/3
f 191/4/3 184/4/3 190/4/3
f 192/4/3 184/4/3 191/4/3
f 193/4/3 185/4/3 183/4/3
f 194/4/3 185/4/3 193/4/3
f 195/4/3 185/4/3 194/4/3
f 196/3/3 186/3/3 185/3/3
f 196/4/3 185/4/3 195/4/3
f 197/4/3 187/4/3 186/4/3
f 197/3/3 186/3/3 196/3/3
f 198/4/3 187/4/3 197/4/3
f 199/4/3 187/4/3 198/4/3
f 200/4/3 187/4/3 199/4/3
f 201/3/3 188/3/3 187/3/3
f 201/4/3 187/4/3 200/4/3
f 202/4/3 189/4/3 188/4/3
f 202/3/3 188/3/3 201/3/3
f 203/4/3 189/4/3 202/4/3
f 204/4/3 189/4/3 203/4/3
f 205/4/3 189/4/3 204/4/3
f 206/3/3 190/3/3 189/3/3
f 206/4/3 189/4/3 205/4/3
f 207/4/3 191/4/3 190/4/3
f 207/3/3 190/3/3 206/3/3
f 208/4/3 191/4/3 207/4/3
f 209/4/3 191/4/3 208/4/3
f 210/4/3 191/4/3 209/4/3
f 211/3/3 192/3/3 191/3/3
f 211/4/3 191/4/3 210/4/3
f 212/3/3 197/3/3 196/3/3
f 213/3/3 197/3/3 212/3/3
f 214/3/3 202/3/3 201/3/3
f 215/3/3 202/3/3 214/3/3
f 216/3/3 207/3/3 206/3/3
f 217/3/3 207/3/3 216/3/3
f 218/3/3 192/3/3 211/3/3
f 219/4/3 184/4/3 192/4/3
f 219/3/3 192/3/3 218/3/3
f 220/4/3 213/4/3 212/4/3
f 221/4/3 213/4/3 220/4/3
f 222/4/3 215/4/3 214/4/3
f 223/4/3 215/4/3 222/4/3
f 224/4/3 217/4/3 216/4/3
f 225/4/3 217/4/3 224/4/3
f 226/4/3 219/4/3 218/4/3
f 227/4/3 184/4/3 219/4/3
f 227/4/3 219/4/3 226/4/3
f 228/3/3 221/3/3 220/3/3
f 229/3/3 221/3/3 228/3/3
f 230/3/3 223/3/3 222/3/3
f 231/3/3 223/3/3 230/3/3
f 232/3/3 225/3/3 224/3/3
f 233/3/3 225/3/3 232/3/3
f 234/3/3 227/3/3 226/3/3
f 235/4/3 184/4/3 227/4/3
f 235/3/3 227/3/3 234/3/3
f 236/4/3 229/4/3 228/4/3
f 237/4/3 229/4/3 236/4/3
f 238/4/3 231/4/3 230/4/3
f 239/4/3 231/4/3 238/4/3
f 240/4/3 233/4/3 232/4/3
f 241/4/3 233/4/3 240/4/3
f 242/4/3 235/4/3 234/4/3
f 243/4/3 184/4/3 235/4/3
f 243/4/3 235/4/3 242/4/3
f 244/3/3 237/3/3 236/3/3
f 245/3/3 237/3/3 244/3/3
f 246/3/3 239/3/3 238/3/3
f 247/3/3 239/3/3 246/3/3
f 248/3/3 241/3/3 240/3/3
f 249/3/3 241/3/3 248/3/3
f 250/3/3 243/3/3 242/3/3
f 251/4/3 184/4/3 243/4/3
f 251/3/3 243/3/3 250/3/3
f 252/4/3 245/4/3 244/4/3
f 253/4/3 245/4/3 252/4/3
f 254/4/3 247/4/3 246/4/3
f 255/4/3 247/4/3 254/4/3
f 256/4/3 249/4/3 248/4/3
f 257/4/3 249/4/3 256/4/3
f 258/4/3 251/4/3 250/4/3
f 259/4/3 184/4/3 251/4/3
f 259/4/3 251/4/3 258/4/3
f 260/3/3 253/3/3 252/3/3
f 261/3/3 253/3/3 260/3/3
f 262/3/3 255/3/3 254/3/3
f 263/3/3 255/3/3 262/3/3
f 264/3/3 257/3/3 256/3/3
f 265/3/3 257/3/3 264/3/3
f 266/3/3 259/3/3 258/3/3
f 267/4/3 184/4/3 259/4/3
f 267/3/3 259/3/3 266/3/3
f 268/4/3 261/4/3 260/4/3
f 269/4/3 261/4/3 268/4/3
f 270/4/3 263/4/3 262/4/3
f 271/4/3 263/4/3 270/4/3
f 272/4/3 265/4/3 264/4/3
f 273/4/3 265/4/3 272/4/3
f 274/4/3 267/4/3 266/4/3
f 275/4/3 184/4/3 267/4/3
f 275/4/3 267/4/3 274/4/3
f 276/3/3 269/3/3 268/3/3
f 277/3/3 269/3/3 276/3/3
f 278/3/3 271/3/3 270/3/3
f 279/3/3 271/3/3 278/3/3
f 280/3/3 273/3/3 272/3/3
f 281/3/3 273/3/3 280/3/3
f 282/3/3 275/3/3 274/3/3
f 283/4/3 184/4/3 275/4/3
f 283/3/3 275/3/3 282/3/3
f 284/4/3 277/4/3 276/4/3
f 285/4/3 277/4/3 284/4/3
f 286/4/3 279/4/3 278/4/3
f 287/4/3 279/4/3 286/4/3
f 288/4/3 281/4/3 280/4/3
f 289/4/3 281/4/3 288/4/3
f 290/4/3 283/4/3 282/4/3
f 291/4/3 184/4/3 283/4/3
f 291/4/3 283/4/3 290/4/3
f 292/3/3 285/3/3 284/3/3
f 293/3/3 285/3/3 292/3/3
f 294/3/3 287/3/3 286/3/3
f 295/3/3 287/3/3 294/3/3
f 296/3/3 289/3/3 288/3/3
f 297/3/3 289/3/3 296/3/3
f 298/3/3 291/3/3 290/3/3
f 299/4/3 184/4/3 291/4/3
f 299/3/3 291/3/3 298/3/3
f 300/4/3 293/4/3 292/4/3
f 301/4/3 293/4/3 300/4/3
f 302/4/3 295/4/3 294/4/3
f 303/4/3 295/4/3 302/4/3
f 304/4/3 297/4/3 296/4/3
f 305/4/3 297/4/3 304/4/3
f 306/4/3 299/4/3 298/4/3
f 307/4/3 184/4/3 299/4/3
f 307/4/3 299/4/3 306/4/3
f 308/3/3 301/3/3 300/3/3
f 309/3/3 301/3/3 308/3/3
f 310/3/3 303/3/3 302/3/3
f 311/3/3 303/3/3 310/3/3
f 312/3/3 305/3/3 304/3/3
f 313/3/3 305/3/3 312/3/3
f 314/3/3 307/3/3 306/3/3
f 315/4/3 184/4/3 307/4/3
f 315/3/3 307/3/3 314/3/3
f 316/4/3 309/4/3 308/4/3
f 317/4/3 309/4/3 316/4/3
f 318/4/3 311/4/3 310/4/3
f 319/4/3 311/4/3 318/4/3
f 320/4/3 313/4/3 312/4/3
f 321/4/3 313/4/3 320/4/3
f 322/4/3 315/4/3 314/4/3
f 323/4/3 184/4/3 315/4/3
f 323/4/3 315/4/3 322/4/3
f 327/3/3 317/3/3 316/3/3
f 328/3/3 317/3/3 327/3/3
f 332/3/3 319/3/3 318/3/3
f 333/3/3 319/3/3 332/3/3
f 337/3/3 321/3/3 320/3/3
f 338/3/3 321/3/3 337/3/3
f 342/3/3 323/3/3 322/3/3
f 343/4/3 326/4/3 325/4/3
f 343/4/3 325/4/3 324/4/3
f 343/4/3 327/4/3 326/4/3
f 343/3/3 328/3/3 327/3/3
f 344/4/3 331/4/3 330/4/3
f 344/3/3 328/3/3 343/3/3
f 344/4/3 329/4/3 328/4/3
f 344/4/3 330/4/3 329/4/3
f 344/4/3 332/4/3 331/4/3
f 345/3/3 333/3/3 332/3/3
f 345/4/3 332/4/3 344/4/3
f 346/4/3 336/4/3 335/4/3
f 346/3/3 333/3/3 345/3/3
f 346/4/3 337/4/3 336/4/3
f 346/4/3 334/4/3 333/4/3
f 346/4/3 335/4/3 334/4/3
f 347/3/3 338/3/3 337/3/3
f 347/4/3 337/4/3 346/4/3
f 348/4/3 342/4/3 341/4/3
f 348/3/3 338/3/3 347/3/3
f 348/4/3 341/4/3 340/4/3
f 348/4/3 340/4/3 339/4/3
f 348/4/3 339/4/3 338/4/3
f 349/3/3 323/3/3 342/3/3
f 349/4/3 342/4/3 348/4/3
f 350/4/3 184/4/3 323/4/3
f 350/3/3 323/3/3 349/3/3
f 351/4/3 347/4/3 346/4/3
f 351/4/3 343/4/3 324/4/3
f 351/4/3 350/4/3 349/4/3
f 351/4/3 346/4/3 345/4/3
f 351/4/3 345/4/3 344/4/3
f 351/4/3 344/4/3 343/4/3
f 351/4/3 349/4/3 348/4/3
f 351/4/3 348/4/3 347/4/3
f 352/4/3 184/4/3 350/4/3
f 352/4/3 350/4/3 351/4/3
f 355/2/3 354/2/3 353/2/3
f 356/2/3 354/2/3 355/2/3
f 358/2/3 354/2/3 356/2/3
f 359/2/3 358/2/3 357/2/3
f 360/2/3 358/2/3 359/2/3
f 362/2/3 358/2/3 360/2/3
f 363/2/3 362/2/3 361/2/3
f 364/2/3 354/2/3 358/2/3
f 364/2/3 362/2/3 363/2/3
f 364/2/3 358/2/3 362/2/3
f 366/2/3 354/2/3 364/2/3
f 367/2/3 366/2/3 365/2/3
f 368/2/3 354/2/3 366/2/3
f 368/2/3 366/2/3 367/2/3
f 370/2/3 354/2/3 368/2/3
f 371/2/3 370/2/3 369/2/3
f 372/2/3 354/2/3 370/2/3
f 372/2/3 370/2/3 371/2/3
f 374/2/3 354/2/3 372/2/3
f 375/2/3 374/2/3 373/2/3
f 376/2/3 354/2/3 374/2/3
f 376/2/3 374/2/3 375/2/3
f 379/2/3 378/2/3 377/2/3
f 380/2/3 378/2/3 379/2/3
f 383/1/3 382/1/3 381/1/3
f 384/1/3 382/1/3 383/1/3
f 385/3/3 384/3/3 383/3/3
f 386/1/3 382/1/3 384/1/3
f 386/3/3 384/3/3 385/3/3
f 387/1/3 386/1/3 385/1/3
f 388/1/3 382/1/3 386/1/3
f 388/1/3 386/1/3 387/1/3
f 389/3/3 388/3/3 387/3/3
f 390/1/3 382/1/3 388/1/3
f 390/3/3 388/3/3 389/3/3
f 391/1/3 390/1/3 389/1/3
f 392/1/3 382/1/3 390/1/3
f 392/1/3 390/1/3 391/1/3
f 395/1/3 394/1/3 393/1/3
f 396/1/3 394/1/3 395/1/3
f 397/1/3 395/1/3 393/1/3
f 397/3/3 396/3/3 395/3/3
f 398/1/3 394/1/3 396/1/3
f 398/3/3 396/3/3 397/3/3
f 399/1/3 397/1/3 393/1/3
f 399/1/3 398/1/3 397/1/3
f 400/1/3 394/1/3 398/1/3
f 400/1/3 398/1/3 399/1/3
f 401/1/3 399/1/3 393/1/3
f 401/3/3 400/3/3 399/3/3
f 402/1/3 394/1/3 400/1/3
f 402/3/3 400/3/3 401/3/3
f 403/1/3 401/1/3 393/1/3
f 403/1/3 402/1/3 401/1/3
f 404/1/3 394/1/3 402/1/3
f 404/1/3 402/1/3 403/1/3
f 408/1/3 407/1/3 406/1/3
f 409/1/3 407/1/3 408/1/3
f 410/1/3 408/1/3 406/1/3
f 410/3/3 409/3/3 408/3/3
f 411/1/3 407/1/3 409/1/3
f 411/3/3 409/3/3 410/3/3
f 412/1/3 410/1/3 406/1/3
f 412/1/3 411/1/3 410/1/3
f 413/1/3 407/1/3 411/1/3
f 413/1/3 411/1/3 412/1/3
f 414/1/3 412/1/3 406/1/3
f 414/3/3 413/3/3 412/3/3
f 415/1/3 407/1/3 413/1/3
f 415/3/3 413/3/3 414/3/3
f 416/2/3 406/2/3 405/2/3
f 417/1/3 414/1/3 406/1/3
f 417/2/3 406/2/3 416/2/3
f 417/1/3 415/1/3 414/1/3
f 418/1/3 407/1/3 415/1/3
f 418/1/3 415/1/3 417/1/3
f 422/1/3 421/1/3 420/1/3
f 423/1/3 421/1/3 422/1/3
f 424/1/3 422/1/3 420/1/3
f 424/3/3 423/3/3 422/3/3
f 425/1/3 421/1/3 423/1/3
f 425/3/3 423/3/3 424/3/3
f 426/1/3 424/1/3 420/1/3
f 426/1/3 425/1/3 424/1/3
f 427/1/3 421/1/3 425/1/3
f 427/1/3 425/1/3 426/1/3
f 428/1/3 426/1/3 420/1/3
f 428/3/3 427/3/3 426/3/3
f 429/1/3 421/1/3 427/1/3
f 429/3/3 427/3/3 428/3/3
f 430/2/3 420/2/3 419/2/3
f 431/1/3 428/1/3 420/1/3
f 431/2/3 420/2/3 430/2/3
f 431/1/3 429/1/3 428/1/3
f 432/1/3 421/1/3 429/1/3
f 432/1/3 429/1/3 431/1/3
f 433/4/4 434/4/4 435/4/4
f 435/4/4 434/4/4 436/4/4
f 437/2/4 438/2/4 440/2/4
f 440/2/4 438/2/4 441/2/4
f 441/2/4 438/2/4 443/2/4
f 442/2/4 443/2/4 444/2/4
f 438/4/4 439/4/4 445/4/4
f 444/2/4 443/2/4 445/2/4
f 443/2/4 438/2/4 445/2/4
f 445/4/4 439/4/4 446/4/4
f 460/2/5 448/2/5 447/2/5
f 461/2/5 448/2/5 460/2/5
f 466/2/5 450/2/5 449/2/5
f 467/2/5 450/2/5 466/2/5
f 468/2/5 452/2/5 451/2/5
f 469/2/5 452/2/5 468/2/5
f 470/2/5 454/2/5 453/2/5
f 471/2/5 456/2/5 455/2/5
f 472/2/5 458/2/5 457/2/5
f 473/2/5 460/2/5 459/2/5
f 473/2/5 461/2/5 460/2/5
f 473/1/5 462/1/5 461/1/5
f 474/3/5 463/3/5 462/3/5
f 474/1/5 462/1/5 473/1/5
f 475/1/5 464/1/5 463/1/5
f 475/3/5 463/3/5 474/3/5
f 476/3/5 465/3/5 464/3/5
f 476/1/5 464/1/5 475/1/5
f 477/1/5 466/1/5 465/1/5
f 477/3/5 465/3/5 476/3/5
f 478/2/5 467/2/5 466/2/5
f 478/1/5 466/1/5 477/1/5
f 479/1/5 468/1/5 467/1/5
f 479/2/5 467/2/5 478/2/5
f 480/2/5 469/2/5 468/2/5
f 480/1/5 468/1/5 479/1/5
f 480/2/5 470/2/5 469/2/5
f 481/2/5 475/2/5 474/2/5
f 481/2/5 477/2/5 476/2/5
f 481/2/5 480/2/5 479/2/5
f 481/2/5 479/2/5 478/2/5
f 481/2/5 478/2/5 477/2/5
f 481/2/5 473/2/5 459/2/5
f 481/2/5 476/2/5 475/2/5
f 481/2/5 474/2/5 473/2/5
f 482/2/5 470/2/5 480/2/5
f 482/2/5 480/2/5 481/2/5
f 482/2/5 454/2/5 470/2/5
f 483/2/5 471/2/5 455/2/5
f 483/2/5 472/2/5 471/2/5
f 484/2/5 458/2/5 472/2/5
f 484/2/5 472/2/5 483/2/5
f 487/2/5 486/2/5 485/2/5
f 488/2/5 486/2/5 487/2/5
f 497/2/5 490/2/5 489/2/5
f 498/2/5 490/2/5 497/2/5
f 499/2/5 492/2/5 491/2/5
f 500/2/5 492/2/5 499/2/5
f 501/2/5 496/2/5 495/2/5
f 502/2/5 496/2/5 501/2/5
f 503/2/5 494/2/5 493/2/5
f 504/2/5 494/2/5 503/2/5
f 507/4/5 506/4/5 505/4/5
f 508/4/5 506/4/5 507/4/5
f 513/4/5 510/4/5 509/4/5
f 513/4/5 512/4/5 511/4/5
f 513/4/5 511/4/5 510/4/5
f 514/4/5 512/4/5 513/4/5
f 515/4/5 513/4/5 509/4/5
f 516/4/5 513/4/5 515/4/5
f 519/4/5 518/4/5 517/4/5
f 520/4/5 518/4/5 519/4/5
f 521/4/5 518/4/5 520/4/5
f 522/4/5 518/4/5 521/4/5
f 523/4/5 518/4/5 522/4/5
f 524/4/5 518/4/5 523/4/5
f 525/4/5 518/4/5 524/4/5
f 526/4/5 518/4/5 525/4/5
f 527/4/5 518/4/5 526/4/5
f 528/4/5 518/4/5 527/4/5
f 529/4/5 518/4/5 528/4/5
f 530/4/5 518/4/5 529/4/5
f 531/4/5 518/4/5 530/4/5
f 532/4/5 518/4/5 531/4/5
f 533/4/5 518/4/5 532/4/5
f 534/4/5 518/4/5 533/4/5
f 537/4/5 536/4/5 535/4/5
f 538/4/5 536/4/5 537/4/5
f 539/4/5 536/4/5 538/4/5
f 540/4/5 536/4/5 539/4/5
f 541/4/5 536/4/5 540/4/5
f 542/4/5 536/4/5 541/4/5
f 543/4/5 536/4/5 542/4/5
f 544/4/5 536/4/5 543/4/5
f 545/4/5 536/4/5 544/4/5
f 546/4/5 536/4/5 545/4/5
f 547/4/5 536/4/5 546/4/5
f 548/4/5 536/4/5 547/4/5
f 549/4/5 536/4/5 548/4/5
f 550/4/5 536/4/5 549/4/5
f 551/4/5 536/4/5 550/4/5
f 552/4/5 536/4/5 551/4/5
f 555/4/5 554/4/5 553/4/5
f 556/4/5 554/4/5 555/4/5
f 557/4/5 554/4/5 556/4/5
f 558/4/5 554/4/5 557/4/5
f 559/4/5 554/4/5 558/4/5
f 560/4/5 554/4/5 559/4/5
f 561/4/5 554/4/5 560/4/5
f 562/4/5 554/4/5 561/4/5
f 563/4/5 554/4/5 562/4/5
f 564/4/5 554/4/5 563/4/5
f 565/4/5 554/4/5 564/4/5
f 566/4/5 554/4/5 565/4/5
f 567/4/5 554/4/5 566/4/5
f 568/4/5 554/4/5 567/4/5
f 569/4/5 554/4/5 568/4/5
f 570/4/5 554/4/5 569/4/5
f 571/5/6 572/5/6 573/5/6
f 573/5/6 572/5/6 574/5/6
f 574/5/6 572/5/6 575/5/6
f 575/5/6 572/5/6 576/5/6
f 576/5/6 572/5/6 577/5/6
f 577/5/6 572/5/6 578/5/6
f 578/5/6 572/5/6 579/5/6
f 579/5/6 572/5/6 580/5/6
f 580/5/6 572/5/6 581/5/6
f 581/5/6 572/5/6 582/5/6
f 582/5/6 572/5/6 583/5/6
f 583/5/6 572/5/6 584/5/6
f 584/5/6 572/5/6 585/5/6
f 585/5/6 572/5/6 586/5/6
f 586/5/6 572/5/6 587/5/6
f 587/5/6 572/5/6 588/5/6
f 589/5/6 590/5/6 591/5/6
f 591/5/6 590/5/6 592/5/6
f 592/5/6 590/5/6 593/5/6
f 593/5/6 590/5/6 594/5/6
f 594/5/6 590/5/6 595/5/6
f 595/5/6 590/5/6 596/5/6
f 596/5/6 590/5/6 597/5/6
f 597/5/6 590/5/6 598/5/6
f 598/5/6 590/5/6 599/5/6
f 599/5/6 590/5/6 600/5/6
f 600/5/6 590/5/6 601/5/6
f 601/5/6 590/5/6 602/5/6
f 602/5/6 590/5/6 603/5/6
f 603/5/6 590/5/6 604/5/6
f 604/5/6 590/5/6 605/5/6
f 605/5/6 590/5/6 606/5/6
f 607/5/6 608/5/6 609/5/6
f 609/5/6 608/5/6 610/5/6
f 610/5/6 608/5/6 611/5/6
f 611/5/6 608/5/6 612/5/6
f 612/5/6 608/5/6 613/5/6
f 613/5/6 608/5/6 614/5/6
f 614/5/6 608/5/6 615/5/6
f 615/5/6 608/5/6 616/5/6
f 616/5/6 608/5/6 617/5/6
f 617/5/6 608/5/6 618/5/6
f 618/5/6 608/5/6 619/5/6
f 619/5/6 608/5/6 620/5/6
f 620/5/6 608/5/6 621/5/6
f 621/5/6 608/5/6 622/5/6
f 622/5/6 608/5/6 623/5/6
f 623/5/6 608/5/6 624/5/6
f 625/5/6 626/5/6 627/5/6
f 627/5/6 626/5/6 628/5/6
f 628/5/6 626/5/6 629/5/6
f 629/5/6 626/5/6 630/5/6
f 630/5/6 626/5/6 631/5/6
f 631/5/6 626/5/6 632/5/6
f 632/5/6 626/5/6 633/5/6
f 633/5/6 626/5/6 634/5/6
f 634/5/6 626/5/6 635/5/6
f 635/5/6 626/5/6 636/5/6
f 636/5/6 626/5/6 637/5/6
f 637/5/6 626/5/6 638/5/6
f 638/5/6 626/5/6 639/5/6
f 639/5/6 626/5/6 640/5/6
f 640/5/6 626/5/6 641/5/6
f 641/5/6 626/5/6 642/5/6
f 643/4/6 644/4/6 645/4/6
f 645/4/6 644/4/6 646/4/6
